<?xml version="1.0" encoding="utf-8"?>
<!-- Generator: Adobe Illustrator 24.1.1, SVG Export Plug-In . SVG Version: 6.00 Build 0)  -->
<svg version="1.1" id="Layer_1" xmlns="http://www.w3.org/2000/svg" xmlns:xlink="http://www.w3.org/1999/xlink" x="0px" y="0px"
	 viewBox="0 0 512 512" style="enable-background:new 0 0 512 512;" xml:space="preserve">
<g>
	<path d="M402.4,134.7l-62.7-90.5c-9.2-13.2-24.3-21.8-41.3-22h-0.1l-119.2-1.7c-61.4,0-108.5,10.3-138.9,60.4
		C12,127.4,0,206.9,0,346.6v17.1h39l-25.1,128h34.8l25.1-128h11.6h1c28.7,0,54.7-11.4,73.8-29.9l0,0c18.1-17.3,31.2-41,37.8-68.6
		l0.1-0.2l29.3-140.3h-34.9l-27.7,132.8c-8.4,34.9-33.7,72-79.3,72H34.2c0.9-120.8,11.9-192.4,35.3-231.1
		c19.6-32.4,48.3-43.9,109.6-44l118.8,1.7c5.7,0.1,10.7,3,13.7,7.3l0.1,0l70.9,102.4l95.2,15.9v18.1L462,284.6
		c-4.7,25-12.7,37.6-45.6,41.6l-134.7,23.1l-0.9,142.4h34.1l0.7-113.6l105.3-18c23.8-2.9,41.4-10.6,53.8-23.5
		c10.6-11,17-25.1,20.8-45.6l16.5-87.8v-50.2L402.4,134.7z"/>
</g>
</svg>
